<svg xmlns="http://www.w3.org/2000/svg" xmlns:xlink="http://www.w3.org/1999/xlink" width="90" height="90" viewBox="0 0 240 240">
  <defs>
    <linearGradient id="linear-gradient" x1="0.498" y1="0.696" x2="0.346" y2="0.31" gradientUnits="objectBoundingBox">
      <stop offset="0" stop-color="#ff9085"/>
      <stop offset="1" stop-color="#fb6fbb"/>
    </linearGradient>
    <linearGradient id="linear-gradient-3" x1="0.466" y1="0.617" x2="0.761" y2="1.183" gradientUnits="objectBoundingBox">
      <stop offset="0" stop-color="#ffc444"/>
      <stop offset="0.996" stop-color="#f36f56"/>
    </linearGradient>
    <linearGradient id="linear-gradient-4" x1="0.465" y1="0.617" x2="0.761" y2="1.183" xlink:href="#linear-gradient-3"/>
    <linearGradient id="linear-gradient-5" y1="0.5" x2="1" y2="0.5" gradientUnits="objectBoundingBox">
      <stop offset="0.004" stop-color="#ebeff2"/>
      <stop offset="1" stop-color="#fff"/>
    </linearGradient>
    <linearGradient id="linear-gradient-6" x1="0.208" y1="0.496" x2="0.894" y2="0.511" xlink:href="#linear-gradient-5"/>
    <linearGradient id="linear-gradient-7" y1="0.5" x2="1" y2="0.5" gradientUnits="objectBoundingBox">
      <stop offset="0" stop-color="#aa80f9"/>
      <stop offset="0.996" stop-color="#6165d7"/>
    </linearGradient>
    <linearGradient id="linear-gradient-8" x1="0.241" y1="0.511" x2="0.57" y2="0.758" xlink:href="#linear-gradient-5"/>
    <linearGradient id="linear-gradient-13" x1="0.487" y1="1.104" x2="0.533" y2="-1.021" xlink:href="#linear-gradient-5"/>
    <linearGradient id="linear-gradient-15" x1="0.783" y1="-0.284" x2="0.486" y2="0.838" gradientUnits="objectBoundingBox">
      <stop offset="0" stop-color="#ef776b"/>
      <stop offset="1" stop-color="#c43a54"/>
    </linearGradient>
    <linearGradient id="linear-gradient-16" x1="0.666" y1="-0.009" x2="0.096" y2="0.982" gradientUnits="objectBoundingBox">
      <stop offset="0" stop-color="#ff9085"/>
      <stop offset="1" stop-color="#c43a54"/>
    </linearGradient>
    <linearGradient id="linear-gradient-17" x1="1" y1="0.5" x2="0" y2="0.5" gradientUnits="objectBoundingBox">
      <stop offset="0" stop-color="#ab316d"/>
      <stop offset="1" stop-color="#792d3d"/>
    </linearGradient>
    <linearGradient id="linear-gradient-19" x1="1" x2="0" xlink:href="#linear-gradient-5"/>
    <linearGradient id="linear-gradient-20" x1="0.4" y1="0.776" x2="0.909" y2="-0.335" gradientUnits="objectBoundingBox">
      <stop offset="0" stop-color="#ffc444"/>
      <stop offset="1" stop-color="#fff"/>
    </linearGradient>
    <linearGradient id="linear-gradient-21" x1="0.655" y1="-0.115" x2="-0.241" y2="4.299" xlink:href="#linear-gradient-17"/>
    <linearGradient id="linear-gradient-22" x1="0.332" y1="0.783" x2="1.03" y2="-0.368" xlink:href="#linear-gradient-20"/>
    <clipPath id="clip-path">
      <path id="Path_22954" data-name="Path 22954" d="M2304.933,2449.628s-10.149-5.6-17.408-2.029-20.268,2.366-22.112,14.239c-1.729,11.112-.123,38.875,37.55,35.031,0,0-4.919-11.256-4.673-22.881S2300.136,2451.719,2304.933,2449.628Z" transform="translate(-2264.971 -2446.41)" fill="none"/>
    </clipPath>
    <linearGradient id="linear-gradient-23" x1="-0.001" y1="1.301" x2="0.597" y2="0.411" xlink:href="#linear-gradient-20"/>
    <linearGradient id="linear-gradient-25" x1="0.751" y1="-2.17" x2="0.183" y2="4.165" xlink:href="#linear-gradient-17"/>
    <linearGradient id="linear-gradient-26" y1="0.5" x2="1" y2="0.5" gradientUnits="objectBoundingBox">
      <stop offset="0" stop-color="#4fc3ba"/>
      <stop offset="1" stop-color="#a1f094"/>
    </linearGradient>
    <linearGradient id="linear-gradient-27" x1="0.231" y1="1.867" x2="0.331" y2="3.5" gradientUnits="objectBoundingBox">
      <stop offset="0" stop-color="#24abb5"/>
      <stop offset="1" stop-color="#40cf9f"/>
    </linearGradient>
    <linearGradient id="linear-gradient-28" x1="0.045" y1="0.006" x2="0.703" y2="0.749" xlink:href="#linear-gradient-26"/>
    <linearGradient id="linear-gradient-30" x1="-0.396" y1="3.113" x2="0.554" y2="3.113" xlink:href="#linear-gradient-27"/>
    <linearGradient id="linear-gradient-31" x1="-0.321" y1="1.489" x2="0.862" y2="1.489" xlink:href="#linear-gradient-27"/>
    <linearGradient id="linear-gradient-32" x1="-0.646" y1="1.693" x2="4.334" y2="-0.23" xlink:href="#linear-gradient-27"/>
    <linearGradient id="linear-gradient-33" x1="0.097" y1="0.403" x2="0.877" y2="0.604" xlink:href="#linear-gradient-26"/>
    <linearGradient id="linear-gradient-34" x1="-1.956" y1="2.323" x2="-1.107" y2="2.323" xlink:href="#linear-gradient-27"/>
    <linearGradient id="linear-gradient-35" x1="1.112" y1="0.439" x2="-0.11" y2="0.553" gradientUnits="objectBoundingBox">
      <stop offset="0" stop-color="#4fc3ba"/>
      <stop offset="0.844" stop-color="#a1f094"/>
    </linearGradient>
    <linearGradient id="linear-gradient-36" x1="0.796" y1="2.349" x2="2.073" y2="2.349" xlink:href="#linear-gradient-27"/>
    <linearGradient id="linear-gradient-37" x1="0.367" y1="0.83" x2="0.615" y2="0.055" xlink:href="#linear-gradient-26"/>
    <linearGradient id="linear-gradient-38" x1="-0.319" y1="2.028" x2="0.599" y2="2.028" xlink:href="#linear-gradient-27"/>
    <linearGradient id="linear-gradient-39" x1="-3.136" y1="2.816" x2="-3.175" y2="6.187" xlink:href="#linear-gradient-27"/>
    <linearGradient id="linear-gradient-40" x1="0.976" y1="0.788" x2="1.647" y2="1.335" xlink:href="#linear-gradient-3"/>
    <linearGradient id="linear-gradient-41" x1="0.464" y1="1.277" x2="0.611" y2="-1.341" xlink:href="#linear-gradient-3"/>
    <linearGradient id="linear-gradient-42" x1="0.737" y1="0.096" x2="0.035" y2="1.097" xlink:href="#linear-gradient-3"/>
    <linearGradient id="linear-gradient-43" x1="0.803" y1="-0.632" x2="0.048" y2="1.229" xlink:href="#linear-gradient-3"/>
    <linearGradient id="linear-gradient-44" x1="0.488" y1="0.152" x2="0.566" y2="0.77" xlink:href="#linear-gradient-17"/>
    <linearGradient id="linear-gradient-45" x1="0" x2="1" xlink:href="#linear-gradient-17"/>
    <linearGradient id="linear-gradient-46" x1="-0.053" y1="-0.347" x2="2.483" y2="4.113" xlink:href="#linear-gradient-3"/>
    <linearGradient id="linear-gradient-47" x1="0.605" y1="1.545" x2="0.287" y2="-1.116" xlink:href="#linear-gradient-3"/>
    <linearGradient id="linear-gradient-48" x1="0.223" y1="1.348" x2="0.517" y2="0.224" gradientUnits="objectBoundingBox">
      <stop offset="0" stop-color="#311944"/>
      <stop offset="1" stop-color="#a03976"/>
    </linearGradient>
    <linearGradient id="linear-gradient-49" x1="0.644" y1="0.93" x2="0.165" y2="-0.97" xlink:href="#linear-gradient-3"/>
  </defs>
  <g id="Strength_and_Conditioning" data-name="Strength and Conditioning" transform="translate(-794.978 -68.478)">
    <path id="Path_21364" data-name="Path 21364" d="M555.389,468.947c-8.194,11.5,1.074,30.389-11,38.978-11.748,8.36-25.926-5.7-36.991,1.49-16.415,10.66-13.958,60.261,9.552,91.31,7.07,9.337,13.022,13,15.564,23.508,5.46,22.552-14.7,35.72-11.005,46.885,8.314,25.138,140,47.548,193.716-27.17,25.087-34.9,29.319-85.626,7.638-124.417C683.688,449.436,573.775,443.137,555.389,468.947Z" transform="translate(298.112 -386.522)" fill="#f4f7fa"/>
    <g id="Group_6483" data-name="Group 6483" transform="translate(824.78 124.272)">
      <path id="Path_20389" data-name="Path 20389" d="M812.975,676.655c-4.031.163-34.513.877-54.758-23.913-15.37-18.82-16.5-42.121-14.055-55.271.722-3.891,2.96-15.935,8-16.607a5.052,5.052,0,0,1,4.658,2.384c2.728,4.593-4.6,12.331-2.1,15.134a2.689,2.689,0,0,0,2.99.6c2.379-1.216-.18-6.883,2.526-11.718,2.018-3.6,6.562-6.03,8.342-4.866,2.448,1.6-.817,9.67-2.422,17.518,0,0-4.083,19.971,4.171,40.736C780.088,665.211,806.715,674.618,812.975,676.655Z" transform="translate(-743.166 -580.833)" fill="url(#linear-gradient)"/>
      <path id="Path_20390" data-name="Path 20390" d="M781.691,666.981c-4.013-4.471-5.611-10.992-15.337-21.69-10.216-11.235-13.723-9.837-15.507-15.381-4.5-13.994,16.7-26.45,13.355-43.567a20.032,20.032,0,0,0-.716-2.656,11.378,11.378,0,0,0-3.251,3.572c-2.706,4.834-.148,10.5-2.527,11.718a2.69,2.69,0,0,1-2.99-.6c-2.5-2.8,4.83-10.541,2.1-15.134a5.053,5.053,0,0,0-4.658-2.384c-5.041.672-7.278,12.716-8,16.607-2.443,13.15-1.316,36.452,14.055,55.271,20.246,24.79,50.728,24.077,54.758,23.914-1.481-.482-4.1-1.376-7.366-2.785C792.451,674.618,785.534,671.26,781.691,666.981Z" transform="translate(-743.166 -580.833)" opacity="0.3" fill="url(#linear-gradient)" style="mix-blend-mode: multiply;isolation: isolate"/>
    </g>
    <g id="Group_6484" data-name="Group 6484" transform="translate(799.227 104.068)">
      <path id="Path_20391" data-name="Path 20391" d="M1587.474,1285.7c1.782-3.457-18.267-12.51-32.117-36.991-5.273-9.318-16.587-33.136-16.567-62.9.007-12.424,1.991-27.771-2.413-29.44-1.759-.667-4.77.778-6.081,2.971-1.157,1.93-.419,3.48-1.417,8.014-.109.492-1.165,5.293-1.99,5.217-1.048-.1.224-7.921-3.406-15.931-.84-1.855-3.28-7.25-5.353-7.021-4.593.508-9.4,27.246-5.84,51.844,4.928,33.983,25.641,62.439,49.636,76.414C1573.065,1284.36,1586.08,1288.406,1587.474,1285.7Z" transform="translate(-1511.05 -1149.607)" fill="url(#linear-gradient-3)"/>
      <path id="Path_20392" data-name="Path 20392" d="M1547.179,1250.98c-16.507-19.535-28.729-34.394-26.749-51.3,1.125-9.61,5.832-11.288,9.727-21.6a54.314,54.314,0,0,0,3.245-21.41,6.955,6.955,0,0,0-3.119,2.666c-1.155,1.931-.42,3.482-1.417,8.017-.109.491-1.165,5.292-1.988,5.215-1.048-.1.225-7.919-3.4-15.931-.84-1.855-3.277-7.25-5.351-7.02-4.589.508-9.4,27.246-5.835,51.843,4.924,33.984,25.625,62.439,49.606,76.414,11,6.412,23.836,10.438,25.48,7.922a54.7,54.7,0,0,1-10.042-4.571C1568.263,1275.931,1561.235,1267.615,1547.179,1250.98Z" transform="translate(-1511.05 -1149.606)" opacity="0.3" fill="url(#linear-gradient-4)" style="mix-blend-mode: multiply;isolation: isolate"/>
    </g>
    <g id="fitness-nutrition" transform="translate(808.359 73.704)">
      <g id="Group_8764" data-name="Group 8764" transform="translate(0 0)">
        <g id="Group_8741" data-name="Group 8741" transform="translate(49.092 0)">
          <path id="Path_22915" data-name="Path 22915" d="M2298.772,1180.49l-53.908-.4v-12.448a2.043,2.043,0,0,1,2.157-2.038l49.825,2.838a2.041,2.041,0,0,1,1.925,2.038Z" transform="translate(-2221.808 -1165.603)" fill="url(#linear-gradient-5)"/>
          <path id="Path_22916" data-name="Path 22916" d="M2304.988,1180.492l-53.906-3.07v-9.776a2.043,2.043,0,0,1,2.158-2.04l49.822,2.838a2.041,2.041,0,0,1,1.927,2.038Z" transform="translate(-2227.408 -1165.602)" fill="#d8dee8"/>
          <g id="Group_8737" data-name="Group 8737" transform="translate(52.555 24.615)">
            <path id="Path_22917" data-name="Path 22917" d="M2594.593,1563.594l-52.616,2.926V1413.528l52.616,2.924Z" transform="translate(-2541.976 -1413.528)" fill="#d8dee8"/>
            <g id="Group_8736" data-name="Group 8736" transform="translate(0 23.05)">
              <path id="Path_22918" data-name="Path 22918" d="M2577.314,1646.243c-13.437,3.4,7.6,20.841-4.271,24.487-9.423,2.894-8.3-23.356-16.926-15.9-8.736,7.547,2.862,30.053,8.739,47.333,5.829,17.131,6.132,41.862-11.4,37.528a36.064,36.064,0,0,1-11.475-4.949v40.912l52.616-2.924V1652.074C2590.41,1647.359,2584.406,1644.45,2577.314,1646.243Z" transform="translate(-2541.978 -1645.708)" fill="url(#linear-gradient-6)"/>
            </g>
          </g>
          <g id="Group_8740" data-name="Group 8740" transform="translate(0 11.218)">
            <path id="Path_22919" data-name="Path 22919" d="M2065.207,1567.4l-52.585-9.663V1431.2l52.585-16.694Z" transform="translate(-2012.622 -1401.015)" fill="url(#linear-gradient-7)"/>
            <path id="Path_22920" data-name="Path 22920" d="M2065.207,1292.089l-52.585,16.695,23.812-30.19h0Z" transform="translate(-2012.622 -1278.594)" fill="url(#linear-gradient-8)"/>
            <g id="Group_8738" data-name="Group 8738" transform="translate(0 0)" opacity="0.3" style="mix-blend-mode: multiply;isolation: isolate">
              <path id="Path_22921" data-name="Path 22921" d="M2036.434,1278.594l-23.812,30.189,30.789-26.917Z" transform="translate(-2012.622 -1278.594)" fill="#e6e6e6"/>
            </g>
            <path id="Path_22922" data-name="Path 22922" d="M2012.622,2421.046v29.631l52.585,9.662v-40.864c-8.971-5.687-13.172-12.115-27.769-13.531C2027.914,2405.02,2018.9,2413.178,2012.622,2421.046Z" transform="translate(-2012.622 -2293.954)" fill="#d8dee8"/>
            <g id="Group_8739" data-name="Group 8739" transform="translate(5.343 28.7)">
              <path id="Path_22923" data-name="Path 22923" d="M2074.018,2068.991v.053l8.072,3.089v4.28l-8.072,3.606v.056L2087.2,2080v4.58l-20.761-.306v-4.49l11.735-5.355v-.054l-11.735-4.6v-4.591l20.761-1.646v4.691Z" transform="translate(-2066.444 -2014.3)" fill="url(#linear-gradient-5)"/>
              <path id="Path_22924" data-name="Path 22924" d="M2087.2,1967.442l-20.761,2.084V1964.7l20.761-2.579Z" transform="translate(-2066.444 -1922.958)" fill="url(#linear-gradient-5)"/>
              <path id="Path_22925" data-name="Path 22925" d="M2066.444,1788.161l16.427-2.753v-8.591l4.334-.9v13.74l-20.761,3.018Z" transform="translate(-2066.444 -1755.245)" fill="url(#linear-gradient-5)"/>
              <path id="Path_22926" data-name="Path 22926" d="M2066.444,1584.97l8.41-2.056v-.053l-8.41-3.645v-5.083l9.45,4.206,11.31-10.674v5.6l-10.257,9.08v.055l10.257-2.507v4.835l-20.761,4.627Z" transform="translate(-2066.444 -1567.666)" fill="url(#linear-gradient-5)"/>
            </g>
          </g>
          <path id="Path_22927" data-name="Path 22927" d="M2252.458,1278.594l53.771,2.42,27.589,13.9-52.588-2.828Z" transform="translate(-2228.648 -1267.376)" fill="url(#linear-gradient-13)"/>
          <path id="Path_22928" data-name="Path 22928" d="M2281.23,1292.088l-28.772-13.494,4.028,5.457Z" transform="translate(-2228.648 -1267.376)" fill="url(#linear-gradient-5)"/>
        </g>
        <g id="Group_8758" data-name="Group 8758" transform="translate(0 137.788)">
          <path id="Path_22942" data-name="Path 22942" d="M1897.529,2426.224c7.677,5.667,6.615,17.985,6.336,21.221-.875,10.132-6.695,21.98-16.916,26.387-4.76,2.053-9.957,2.271-14.517,2.459-4.659.2-8.586.359-12.547-.861-13.694-4.217-18.184-22.006-18.392-22.88-.58-2.435-3.967-16.678,4.182-24.666a18.207,18.207,0,0,1,7.689-4.366C1860.266,2421.648,1892.646,2422.618,1897.529,2426.224Z" transform="translate(-1828.84 -2408.448)" stroke="rgba(0,0,0,0)" stroke-width="1" fill="url(#linear-gradient-15)"/>
          <g id="Group_8753" data-name="Group 8753" transform="translate(39.483 15.554)" opacity="0.996" style="mix-blend-mode: multiply;isolation: isolate">
            <path id="Path_22943" data-name="Path 22943" d="M1848.146,2471.294c1.181-3.063.539-5.884,2.829-7.735,2.5-2.021,5.293-.316,8.611-1.03,7.945-1.711,15.7-16.611,10.517-26.353-3.143-5.914-10.013-7.972-10.888-8.221-8.342-2.376-14.528,2.375-17.837-.786a4.366,4.366,0,0,1-1.072-1.662,28.287,28.287,0,0,0,4.823.031c5.168-.392,4.9-1.609,10.026-1.813,3.2-.127,10-.4,14.886,3.143,7.678,5.568,6.615,17.673,6.335,20.854-.875,9.956-6.694,21.6-16.915,25.93-4.759,2.017-9.956,2.23-14.516,2.419l-.413.015A11.559,11.559,0,0,0,1848.146,2471.294Z" transform="translate(-1840.307 -2423.661)" fill="url(#linear-gradient-16)"/>
          </g>
          <path id="Path_22944" data-name="Path 22944" d="M2225.356,2267.122c2.467-1.047,2.521-5.1,2.521-5.291a9.453,9.453,0,0,0-3.567-7.012c-2.1-1.695-4.087-1.7-5.106-3.874-.46-.984-.54-2.016-.921-2.027-.443-.019-.809,1.351-1.11,2.4-1.82,6.347-2.778,6.166-2.521,8,.436,3.092,3.366,4.988,5.168,6.152C2221.581,2266.6,2223.564,2267.881,2225.356,2267.122Z" transform="translate(-2183.73 -2248.918)" fill="url(#linear-gradient-17)"/>
          <path id="Path_22945" data-name="Path 22945" d="M2247.146,2251.431c.282-.989.622-2.264,1.032-2.39a4.452,4.452,0,0,0,.075,3c.618,1.453,1.769,1.435,2.646,3.322.82,1.775.111,2.454.982,4.184.782,1.554,1.695,1.68,2.523,2.829a6.44,6.44,0,0,1,.84,4.893c-1.77.686-3.717-.573-5.453-1.695-1.8-1.164-4.734-3.057-5.168-6.152C2244.364,2257.595,2245.324,2257.776,2247.146,2251.431Z" transform="translate(-2213.7 -2249.032)" opacity="0.3" fill="url(#linear-gradient-17)" style="mix-blend-mode: multiply;isolation: isolate"/>
          <path id="Path_22946" data-name="Path 22946" d="M2136.583,2346.183a.725.725,0,0,1-.491-.185c-1.2-1.148,3.219-6.646,4.673-9.9a2.456,2.456,0,0,1,.676-.924,3.27,3.27,0,0,1,2.337-.552c.673.043,1.635.1,1.784.552.164.5-.775,1.159-2.767,2.77-1.854,1.5-2.779,2.248-3.014,2.521C2137.614,2343.008,2137.729,2346.154,2136.583,2346.183Z" transform="translate(-2094.897 -2327.486)" fill="url(#linear-gradient-19)"/>
          <path id="Path_22947" data-name="Path 22947" d="M2137.676,2335.281c-1.042.07-1.563.549-1.721.369-.072-.079-.055-.275.214-.721a3.632,3.632,0,0,1,2-.325c.672.043,1.636.1,1.784.553a.464.464,0,0,1,.016.078,1.042,1.042,0,0,1-.263.168C2139.137,2335.659,2138.75,2335.21,2137.676,2335.281Z" transform="translate(-2089.286 -2327.471)" fill="#d8dee8"/>
          <path id="Path_22948" data-name="Path 22948" d="M2291.049,2449.628s-10.148-5.6-17.408-2.029-9.472,10.211-8.426,21.406,7.564,26.634,23.866,27.865c0,0-4.92-11.256-4.676-22.881S2286.253,2451.719,2291.049,2449.628Z" transform="translate(-2251.086 -2430.008)" fill="url(#linear-gradient-20)"/>
          <path id="Path_22949" data-name="Path 22949" d="M2366.853,2687.71c-1.024-2.972-2.225-5.725-3.2-5.6-.55.075-.893,1.045-.922,1.723C2362.659,2685.438,2364.265,2687.152,2366.853,2687.71Z" transform="translate(-2335.008 -2646.131)" fill="url(#linear-gradient-21)"/>
          <g id="Group_8754" data-name="Group 8754" transform="translate(20.924 18.113)" opacity="0.3" style="mix-blend-mode: multiply;isolation: isolate">
            <path id="Path_22950" data-name="Path 22950" d="M2269.676,2486.486c-1.327-3.2-3.879-3.614-4.551-7.381-.491-2.757.12-6.753,2.707-8.733,2.8-2.146,5.525-.084,10.211-1.968a13.447,13.447,0,0,0,2.577-1.385,28.378,28.378,0,0,1,3.389,1.507c-4.8,2.091-6.4,12.735-6.642,24.359s4.675,22.881,4.675,22.881a22.631,22.631,0,0,1-15.049-7.02,9.609,9.609,0,0,1-1.375-4.79C2265.593,2497.815,2272.224,2492.629,2269.676,2486.486Z" transform="translate(-2264.97 -2467.018)" fill="url(#linear-gradient-22)"/>
          </g>
          <g id="Group_8757" data-name="Group 8757" transform="translate(0 16.402)">
            <g id="Group_8756" data-name="Group 8756" transform="translate(0 0)" clip-path="url(#clip-path)">
              <g id="Group_8755" data-name="Group 8755" transform="translate(0.332 8.008)">
                <path id="Path_22951" data-name="Path 22951" d="M2292.377,2582.165a65.09,65.09,0,0,0-14.146-19.189c-2.462-2.262-3.983-3.267-7.321-6.273a111.2,111.2,0,0,1-12.495-13.245,1.6,1.6,0,0,0-2.566.1,23.769,23.769,0,0,0-4.18,14.417c.243,4.795,2.13,10.317,7.247,16.072C2274.55,2591.635,2292.377,2582.165,2292.377,2582.165Z" transform="translate(-2251.64 -2542.858)" fill="url(#linear-gradient-23)"/>
                <path id="Path_22952" data-name="Path 22952" d="M2255.849,2543.56a1.592,1.592,0,0,1,1.825-.619c-1.259,7.587-2.4,24.407,9.732,33.508a30.4,30.4,0,0,0,24.959,5.692l.013.027s-17.829,9.469-33.461-8.119c-5.116-5.755-7-11.276-7.247-16.072A23.79,23.79,0,0,1,2255.849,2543.56Z" transform="translate(-2251.639 -2542.859)" stroke="rgba(0,0,0,0)" stroke-width="1" opacity="0.995" fill="url(#linear-gradient-16)" style="mix-blend-mode: multiply;isolation: isolate"/>
                <path id="Path_22953" data-name="Path 22953" d="M2443.571,2768.484c.409-.823-2.88-4.321-5.166-3.444-.595.227-1.361.845-1.292,1.477C2437.295,2768.162,2443.108,2769.418,2443.571,2768.484Z" transform="translate(-2418.271 -2746.457)" fill="url(#linear-gradient-25)"/>
              </g>
            </g>
          </g>
        </g>
        <g id="Group_8730" data-name="Group 8730" transform="translate(44.96 171.776)">
          <path id="Path_22890" data-name="Path 22890" d="M712.031,2618.323a11.355,11.355,0,0,0,.073,3.66,4.208,4.208,0,0,0,1.5,3.064,3.461,3.461,0,0,0,.708.406,3.945,3.945,0,0,1,.861.33c.4.292.573.918.89,1.3a4.428,4.428,0,0,0,3.014,1.576,2.56,2.56,0,0,1,.847.162,4.4,4.4,0,0,1,.775.61,2.6,2.6,0,0,0,1.634.558,5.8,5.8,0,0,0,1.678-.3c.64-.187,1.279-.383,1.919-.575s1.279-.368,1.911-.575a3.759,3.759,0,0,0,1.443-.779,3.822,3.822,0,0,0,.83-1.505,1.8,1.8,0,0,1,.427-.735,1.838,1.838,0,0,1,.773-.317,5.619,5.619,0,0,0,2.9-1.537,3.386,3.386,0,0,0,.875-2.761c-.013-.089-.033-.175-.054-.261a.494.494,0,0,0,.235-.273,4.984,4.984,0,0,0-1.815-5.561,8.661,8.661,0,0,0-1.543-.741c-.514-.225-.763-.738-1.131-1.135-.8-.862-1.823-.776-2.885-.62a2.5,2.5,0,0,1-1.407-.073c-.531-.228-1-.581-1.523-.812a2.846,2.846,0,0,0-1.69-.218,12.189,12.189,0,0,1-1.54.368,7.164,7.164,0,0,1-1.727-.37,5.806,5.806,0,0,0-1.589-.092,5.6,5.6,0,0,0-3.089,1.2,3.464,3.464,0,0,0-1.076,1.429,3.543,3.543,0,0,0-.188.875,1.324,1.324,0,0,1-.217.742,8.229,8.229,0,0,1-.657.616,3.691,3.691,0,0,0-.543.7A4.763,4.763,0,0,0,712.031,2618.323Z" transform="translate(-704.295 -2580)" fill="url(#linear-gradient-26)"/>
          <path id="Path_22891" data-name="Path 22891" d="M713.3,2702.3c1.008,1.893,2.224,3.7,3.21,5.614a7.792,7.792,0,0,0,2.8,2.447,4.36,4.36,0,0,0,3.818.142c2.434-.9,3.95-3.122,6.685-3.432a13.772,13.772,0,0,1,5.291.37,3.4,3.4,0,0,1-.888,2.648,5.6,5.6,0,0,1-2.9,1.539,1.818,1.818,0,0,0-.773.317,1.765,1.765,0,0,0-.427.735,3.807,3.807,0,0,1-.83,1.506,3.759,3.759,0,0,1-1.443.776c-.632.208-1.275.385-1.912.578s-1.277.386-1.919.575a5.916,5.916,0,0,1-1.678.3,2.588,2.588,0,0,1-1.634-.559,4.562,4.562,0,0,0-.776-.608,2.511,2.511,0,0,0-.847-.163,4.419,4.419,0,0,1-3.013-1.575c-.317-.38-.488-1.006-.89-1.3a3.874,3.874,0,0,0-.86-.329,3.387,3.387,0,0,1-.708-.406,4.21,4.21,0,0,1-1.5-3.064,11.333,11.333,0,0,1-.073-3.662,4.745,4.745,0,0,1,.618-1.654,3.767,3.767,0,0,1,.544-.7C713.231,2702.365,713.267,2702.332,713.3,2702.3Z" transform="translate(-704.3 -2666.428)" opacity="0.4" fill="url(#linear-gradient-27)" style="mix-blend-mode: multiply;isolation: isolate"/>
          <path id="Path_22892" data-name="Path 22892" d="M590.09,2324.688a6.849,6.849,0,0,0-4-2.3,4.015,4.015,0,0,0-1.54-4.3,5.91,5.91,0,0,0-5.906-.244,7.038,7.038,0,0,0-8.8,9,4.622,4.622,0,0,0-3.136,3.128,4.9,4.9,0,0,0,1.76,5.161,28.552,28.552,0,0,0,2.5,1.657,10.166,10.166,0,0,1,2.192,2.188,6.81,6.81,0,0,0,5.559,2.452,6.674,6.674,0,0,0,4.775-2.524,5.392,5.392,0,0,0,3.855.5,6.28,6.28,0,0,0,4.233-3.35A11.03,11.03,0,0,0,590.09,2324.688Z" transform="translate(-566.528 -2301.476)" fill="url(#linear-gradient-28)"/>
          <g id="Group_8728" data-name="Group 8728" transform="translate(8.164 0)">
            <path id="Path_22893" data-name="Path 22893" d="M753.488,2058.2a11.21,11.21,0,0,0,5.289-2.435c1.556-1.55,1.293-4.683,1.925-5.475s2.492-1.353,3.707-2.851c1.759-2.165,2.336-5.147,1.065-6.979-.548-.789-2.145-2.049-1.928-3.2.246-.568,2.053-1.624,1.8-5.146a8.752,8.752,0,0,0-7.375-8.208c-1.089-.635-.953-3.073-3.8-4.25s-4.635.637-5.671.033a13.62,13.62,0,0,0-6.085-2.189,10.442,10.442,0,0,0-7.963,3.659,11.361,11.361,0,0,0-1.383,1.906c-.164.282-.209.385-.532.4-.383.016-.751.011-1.14.051a10.207,10.207,0,0,0-4.216,1.2,9.19,9.19,0,0,0-4.135,7.035c-.159,2.461,2.308,6.874,2.048,7.61s-2.806,3.143-2.69,6.093a9.436,9.436,0,0,0,5.4,8.486c1.5.724,5.628,1.679,6.719,2.408s.876,4.235,2.589,5.789c1.859,1.688,3.9,1.579,6.75.765,1.543-.439,2.475-.234,3.752-1.3,1.472.453,3.409-.36,4.64-1.565C752.819,2059.5,752.484,2058.341,753.488,2058.2Z" transform="translate(-722.406 -2017.491)" fill="url(#linear-gradient-26)"/>
          </g>
          <g id="Group_8729" data-name="Group 8729" transform="translate(8.166 0.002)" opacity="0.4" style="mix-blend-mode: multiply;isolation: isolate">
            <path id="Path_22894" data-name="Path 22894" d="M964.353,2027.656c-3.918-.564-6.75,2.7-10.392,3.156s-4.505-4.317-6.509-6.773a5.272,5.272,0,0,0-2.579-2.035,9.255,9.255,0,0,0-4.418-.076c.2-.261.407-.52.632-.768a10.44,10.44,0,0,1,7.962-3.659c2.548.07,5.046,1.584,6.085,2.189s2.828-1.21,5.672-.033,2.709,3.618,3.8,4.25a8.673,8.673,0,0,1,7.188,6.891l-.231-.176A13.951,13.951,0,0,0,964.353,2027.656Z" transform="translate(-929.035 -2017.497)" fill="url(#linear-gradient-30)"/>
            <path id="Path_22895" data-name="Path 22895" d="M727.192,2137.038a8.286,8.286,0,0,1,2.877-1.012c-1.537,1.3-3.716,3.023-2.7,4.871,1.694,3.1,5.246,5.047,6.254,8.7,1.03,3.9-2.8,6.333-5.919,7.783a1.842,1.842,0,0,0-.807,2.591,8.928,8.928,0,0,0,6.342,5.621c6.818,1.4,13.269-.533,20.164-.977,1.827-.166,3.421,1.162,4.8,2.2q.974-.864,1.89-1.793a5.8,5.8,0,0,1-1.318,3.069,11.229,11.229,0,0,1-5.29,2.435c-1,.144-.669,1.294-1.226,1.841-1.231,1.2-3.168,2.017-4.64,1.564-1.277,1.06-2.209.857-3.752,1.294-2.855.815-4.891.924-6.75-.765-1.713-1.551-1.5-5.057-2.589-5.787s-5.221-1.684-6.719-2.407a9.437,9.437,0,0,1-5.4-8.487c-.116-2.948,2.431-5.357,2.69-6.093s-2.207-5.148-2.048-7.61A9.188,9.188,0,0,1,727.192,2137.038Z" transform="translate(-722.411 -2129.819)" fill="url(#linear-gradient-31)"/>
          </g>
          <path id="Path_22896" data-name="Path 22896" d="M886.761,2311.778c10.046,8.048,12.9,22.523,12.9,22.523l9.35-5.85c-12.8-14.7-9.819-20.77-9.927-27.051,0,0-.779-1.528-1.319.228a26.1,26.1,0,0,0-.037,8.851c-3.024-4.479-2.55-8.39-3.6-9.586-.357-.408-1.352-.292-1.352-.292a78.554,78.554,0,0,0,7.2,21.986s-6.417-11.13-10.021-13.65c-.676-.458-1.139.119-.6,1.186a34.279,34.279,0,0,1,3.476,5.189c-3.223-2.787-3.762-3.457-4.9-4.4S886.241,2310.718,886.761,2311.778Z" transform="translate(-869.802 -2285.756)" fill="url(#linear-gradient-32)"/>
          <path id="Path_22897" data-name="Path 22897" d="M1272.576,2268.622a3.353,3.353,0,0,0,2.415-2.793,6.921,6.921,0,0,0-1.072-4.773,7.2,7.2,0,0,0-7.624-3.085,2.941,2.941,0,0,0-2.332-1.614,2.767,2.767,0,0,0-2.3.947,5.238,5.238,0,0,0-1.522.138,2.945,2.945,0,0,0-2.269,2.645c-1.685.609-2.584,2.719-2.7,4.417a4.3,4.3,0,0,0,1,3.457c.38.369.888.447.935,1.018a5.13,5.13,0,0,0,.312,1.581,4.8,4.8,0,0,0,2.176,2.375,4.313,4.313,0,0,0,1.353.452,14.953,14.953,0,0,1,1.686.021,3.334,3.334,0,0,1,.809.563,3.415,3.415,0,0,0,2.292.653,6.231,6.231,0,0,0,2.854-1.01C1270.373,2272.535,1272.272,2270.776,1272.576,2268.622Z" transform="translate(-1219.076 -2243.834)" fill="url(#linear-gradient-33)"/>
          <path id="Path_22898" data-name="Path 22898" d="M1258.168,2389.516c.475.509,1.173,1.427,1.517,1.152,3.131-2.678,7.171-.777,10.666-.113,2.06.365,3.143-1.881,3.74-3.411a11.785,11.785,0,0,0,.729-2.327,6.285,6.285,0,0,1,.17,2.753,3.352,3.352,0,0,1-2.415,2.792c-.3,2.155-2.2,3.913-3.991,4.993a6.2,6.2,0,0,1-2.854,1.011,3.758,3.758,0,0,1-1.553-.24,3.718,3.718,0,0,1-.739-.414,3.387,3.387,0,0,0-.809-.563,14.039,14.039,0,0,0-1.686-.02,4.354,4.354,0,0,1-1.353-.453,4.8,4.8,0,0,1-2.176-2.375,5.131,5.131,0,0,1-.312-1.583c-.047-.571-.555-.647-.935-1.017a4.3,4.3,0,0,1-1-3.457c.006-.09.016-.18.026-.271C1256.171,2387.139,1257.092,2388.349,1258.168,2389.516Z" transform="translate(-1219.076 -2365.575)" opacity="0.4" fill="url(#linear-gradient-34)" style="mix-blend-mode: multiply;isolation: isolate"/>
          <path id="Path_22899" data-name="Path 22899" d="M612.347,2373.1a13.046,13.046,0,0,0-3.735-1.926,4.833,4.833,0,0,0-3.91-.163,3.919,3.919,0,0,0-.8.493,4.607,4.607,0,0,1-.8.689c-.514.243-1.24.074-1.8.186a5.08,5.08,0,0,0-3.235,2.182,2.908,2.908,0,0,1-.627.767,5.259,5.259,0,0,1-1.04.452,2.98,2.98,0,0,0-1.456,1.342,6.758,6.758,0,0,0-.611,1.858c-.159.752-.311,1.5-.468,2.251s-.325,1.494-.463,2.245a3.412,3.412,0,0,0,1.063,3.541,2.063,2.063,0,0,1,.508.833,2.13,2.13,0,0,1-.1.955,6.441,6.441,0,0,0-.035,3.768,3.892,3.892,0,0,0,2.309,2.391c.1.033.194.063.293.087a.568.568,0,0,0,.148.388,5.721,5.721,0,0,0,6.6,1.205,9.859,9.859,0,0,0,1.589-1.154,4.423,4.423,0,0,1,1.766-.521c1.3-.333,1.778-1.417,2.2-2.573a2.88,2.88,0,0,1,.845-1.38c.518-.414,1.127-.687,1.65-1.094a3.261,3.261,0,0,0,1.142-1.584,13.691,13.691,0,0,1,.47-1.756,8.068,8.068,0,0,1,1.318-1.54,6.674,6.674,0,0,0,.959-1.554,6.394,6.394,0,0,0,.481-3.771,3.988,3.988,0,0,0-.853-1.866,4.045,4.045,0,0,0-.781-.666,1.521,1.521,0,0,1-.63-.625,9.152,9.152,0,0,1-.263-1,4.347,4.347,0,0,0-.406-.928A5.486,5.486,0,0,0,612.347,2373.1Z" transform="translate(-591.896 -2352.159)" fill="url(#linear-gradient-35)"/>
          <path id="Path_22900" data-name="Path 22900" d="M596.4,2410.974a5.272,5.272,0,0,0,1.04-.45,2.938,2.938,0,0,0,.627-.766,5.12,5.12,0,0,1,2.449-1.958l-.253.4a2.787,2.787,0,0,0-.3.765c-1.107,2-3.109,4.273-2,6.319.531,1.117,2.048,1.594,2.635,2.644,1,1.508.375,3.463.72,5.214.178,1.273-.054,2.767,1.406,3.307a11.718,11.718,0,0,0,7.528.116,3.855,3.855,0,0,0-.505,1.025c-.422,1.158-.9,2.24-2.2,2.575a4.443,4.443,0,0,0-1.765.521,10.008,10.008,0,0,1-1.589,1.154,5.724,5.724,0,0,1-6.6-1.205.568.568,0,0,1-.148-.387c-.1-.025-.2-.055-.292-.086a3.892,3.892,0,0,1-2.309-2.393,6.455,6.455,0,0,1,.034-3.769,2.111,2.111,0,0,0,.1-.952,2.041,2.041,0,0,0-.508-.834,3.415,3.415,0,0,1-1.063-3.542c.138-.749.308-1.5.463-2.243s.308-1.5.468-2.251a6.673,6.673,0,0,1,.612-1.857A2.991,2.991,0,0,1,596.4,2410.974Z" transform="translate(-591.893 -2387.354)" opacity="0.4" fill="url(#linear-gradient-36)" style="mix-blend-mode: multiply;isolation: isolate"/>
          <path id="Path_22901" data-name="Path 22901" d="M906.5,2121.552a7.075,7.075,0,0,0-4.537,1.481,4.154,4.154,0,0,0-4.369-1.787,6.116,6.116,0,0,0-4.272,4.373,7.531,7.531,0,0,0-3.238,4,7.455,7.455,0,0,0,4.074,8.991,4.783,4.783,0,0,0,.237,4.576,5.072,5.072,0,0,0,5.186,2.217,30.011,30.011,0,0,0,3-.778,10.484,10.484,0,0,1,3.2-.174,7.036,7.036,0,0,0,5.728-2.578,6.9,6.9,0,0,0,1.362-5.417,5.582,5.582,0,0,0,3.054-2.616,6.5,6.5,0,0,0,.35-5.572A11.393,11.393,0,0,0,906.5,2121.552Z" transform="translate(-872.799 -2115.715)" fill="url(#linear-gradient-37)"/>
          <path id="Path_22902" data-name="Path 22902" d="M891.871,2176.406c1.029,2.546,3.952,2.955,6.464,2.911,2.933-.145,4.139,3,6.475,4.381a1.1,1.1,0,0,0,1.406-.067c2.014-2.146,1.5-5.046,1.194-7.781-.221-1.084.631-1.836,1.7-2.178a3.008,3.008,0,0,1,2.478.937,8.45,8.45,0,0,0,.662-8.835,10.505,10.505,0,0,1,4.028,4.781,6.491,6.491,0,0,1-.35,5.571,5.589,5.589,0,0,1-3.054,2.618,6.9,6.9,0,0,1-1.362,5.415,7.038,7.038,0,0,1-5.728,2.58,10.48,10.48,0,0,0-3.2.173,29.972,29.972,0,0,1-3,.778,5.074,5.074,0,0,1-5.187-2.217,4.782,4.782,0,0,1-.237-4.574,7.457,7.457,0,0,1-4.074-8.993,7.329,7.329,0,0,1,1.737-2.806A10.23,10.23,0,0,0,891.871,2176.406Z" transform="translate(-872.8 -2158.008)" opacity="0.4" fill="url(#linear-gradient-38)" style="mix-blend-mode: multiply;isolation: isolate"/>
          <path id="Path_22903" data-name="Path 22903" d="M1143.8,2823.844c-1.312-1.092-9.648,2.592-9.35,5.851S1146.388,2826,1143.8,2823.844Z" transform="translate(-1104.693 -2781.419)" fill="url(#linear-gradient-39)"/>
        </g>
      </g>
      <g id="Group_8762" data-name="Group 8762" transform="translate(67.757 72.638)">
        <path id="Path_22832" data-name="Path 22832" d="M599.608,2059.163s-4.245,1.413-14.085,2.789-25.147,16.113-29.453,32.929c0,0-5.215,3.626-1.4,7.524,0,0,6.423,18.93,22.436,22.108s27.122,1.5,29.015,2.563-.965-3.2-1.5-4.481-.817-1.044-4.165-2.369-10.031-15.025-21.088-15.643c0,0,14.152-2.961,21.506-12.938S599.608,2059.163,599.608,2059.163Z" transform="translate(-553.276 -2010.807)" fill="url(#linear-gradient-40)"/>
        <path id="Path_22833" data-name="Path 22833" d="M711.8,2181.6c-7.262,5.424-15.326,1.783-23.2,9.169-4.984,4.678-7.59,11.617-5.933,13.309,1.4,1.43,5.107-1.676,11.494-2.518a23.832,23.832,0,0,1,3.731-.2c3.476-.927,14.282-4.374,20.4-12.664,4.232-5.743,3.174-15.631,1.512-22.994C718.408,2174.882,714.918,2179.274,711.8,2181.6Z" transform="translate(-670.695 -2107.864)" opacity="0.3" fill="url(#linear-gradient-41)" style="mix-blend-mode: multiply;isolation: isolate"/>
        <path id="Path_22834" data-name="Path 22834" d="M1682.9,1705.392c-6.474-11.863-23.737-20.169-26.451-21.371s-10.054-5.856-12.085-5.231-5.069,2.607-4.718,4.757,4.412,3.226,6.552,1.995,3.5.258,6.255,2.537,2.062,5.483,2.753,9.608c.365,2.168,2.307,3.547,4.07,4.368-.77-.275-1.722-.615-2.909-1.044-7.106-2.56-16.3-1.328-20.419.35s-10.918-.35-10.918-.35,7.516,43.336,9.056,40.222,12.328-10.274,26.21-11.122,23.253-16.919,23.253-16.919C1688.024,1709.087,1682.9,1705.392,1682.9,1705.392Zm-20.83-2.362c.154.036.246.056.246.056S1662.58,1703.2,1662.07,1703.03Z" transform="translate(-1529.584 -1664.259)" fill="url(#linear-gradient-42)"/>
        <path id="Path_22835" data-name="Path 22835" d="M1698.6,1984.641a2.153,2.153,0,0,1-1.022,1.625c-1.66.938-3.866-.974-7.385-.791-6.688.346-7.01,7.688-13.845,9.737-6.126,1.837-10.4-2.7-25-5.786a96.806,96.806,0,0,0-9.825-1.545c2.268,12.4,6.479,34.262,7.586,32.018,1.538-3.114,12.329-10.276,26.21-11.122s23.253-16.92,23.253-16.92C1701.988,1988.727,1699.825,1985.838,1698.6,1984.641Z" transform="translate(-1544.611 -1942.923)" opacity="0.3" fill="url(#linear-gradient-43)" style="mix-blend-mode: multiply;isolation: isolate"/>
        <path id="Path_22836" data-name="Path 22836" d="M990.444,1945.073s20.539-15.262,60.812-12.625c1.883,3.692,3.34,6.75,4.3,8.815,9.127,19.608,10.725,29.189,11.269,33.233a6.358,6.358,0,0,1,.24,1.978c-.161,3.194-7.638,49.848-13.306,61.454,0,0-21.915,17.318-45.662,4.233,0,0,1.763-12.623.072-22.991s-12.581-38.381-12.581-38.381S1001.562,1970.091,990.444,1945.073Z" transform="translate(-951.511 -1895.099)" fill="url(#linear-gradient-44)"/>
        <path id="Path_22837" data-name="Path 22837" d="M1034.516,2074.316c-8.1-15.757-21.833-14.125-30.21-30.57a45.149,45.149,0,0,1-4.51-22.66,50.748,50.748,0,0,0-9.354,5.012c11.118,25.02,5.142,35.719,5.142,35.719s10.891,28.011,12.582,38.38-.072,22.991-.072,22.991c16.372,9.021,31.871,3.592,39.921-.652a54.689,54.689,0,0,1-6.127-10.276C1034.215,2095.357,1041.6,2088.083,1034.516,2074.316Z" transform="translate(-951.51 -1976.123)" opacity="0.3" fill="url(#linear-gradient-45)" style="mix-blend-mode: multiply;isolation: isolate"/>
        <path id="Path_22838" data-name="Path 22838" d="M1110.935,2733.127s4.977-3.2,8.265-3.316,5.207,6.644,5.761,7.817-4.51-.426-7.012.193-4.723.525-6.089-1.312A4.129,4.129,0,0,1,1110.935,2733.127Z" transform="translate(-1061.209 -2621.729)" fill="url(#linear-gradient-46)"/>
        <path id="Path_22839" data-name="Path 22839" d="M1167.592,1806.055s-.913,9.58-4.316,12.388a39.567,39.567,0,0,1-7.386,4.67l12.827,3.688a15.551,15.551,0,0,0,15.468-4.126l5.173-5.342s-7.675-.725-8.28-1.438-2.92-9.84-2.92-9.84Z" transform="translate(-1102.223 -1780.242)" fill="url(#linear-gradient-47)"/>
        <path id="Path_22840" data-name="Path 22840" d="M1217.238,1535.639a15.462,15.462,0,0,0,3.891-4.7c1.108-1.993,2.919-5.252,1.918-8.511-1.16-3.776-5.67-6.181-9.471-6.234-4.232-.06-4.518,2.845-11.3,4.722-4.97,1.378-7.163.465-8.6,2.475-1.648,2.306-.614,6.114-.149,7.827a44.894,44.894,0,0,0,2.085,5.478c1.165,2.537,1.074,2.441,1.437,3.184a36.161,36.161,0,0,0,6.159,8.635,25.221,25.221,0,0,1,1.925-3.922,22.249,22.249,0,0,1,3.52-4.442C1211.843,1537.186,1213.72,1538.453,1217.238,1535.639Z" transform="translate(-1135.831 -1516.197)" fill="url(#linear-gradient-48)"/>
        <path id="Path_22841" data-name="Path 22841" d="M1222.087,1687.873s3.107,7.062,11.1,7.606c7.155.487,10.323-15.281,6.244-19.264a9.03,9.03,0,0,0-6.879-1.84c-1.509.213-2.08.751-4.551,1.051-2.28.276-2.871-.052-3.609.419-.926.589-1.765,2.223-1,7.059-1.17-1.552-2.725-2.294-3.948-1.905a2.448,2.448,0,0,0-1.068.793C1217.139,1683.478,1218.487,1686.021,1222.087,1687.873Z" transform="translate(-1158.734 -1660.214)" fill="url(#linear-gradient-49)"/>
      </g>
    </g>
  </g>
</svg>
